<?xml version="1.0" encoding="UTF-8" standalone="no"?>
<!DOCTYPE svg PUBLIC "-//W3C//DTD SVG 1.1//EN" "http://www.w3.org/Graphics/SVG/1.1/DTD/svg11.dtd">
<svg width="100%" height="100%" viewBox="0 0 128 128" version="1.1" xmlns="http://www.w3.org/2000/svg" xmlns:xlink="http://www.w3.org/1999/xlink" xml:space="preserve" xmlns:serif="http://www.serif.com/" style="fill-rule:evenodd;clip-rule:evenodd;stroke-linejoin:round;stroke-miterlimit:2;">
    <g transform="matrix(-1,0,0,1,-78.7257,157.916)">
        <g transform="matrix(1,0,0,1,-171.924,-158.775)">
            <path d="M79.297,29.203C82.383,25.316 82.805,19.945 80.36,15.625C79.727,14.496 78.293,14.094 77.164,14.727C76.035,15.359 75.633,16.793 76.266,17.922C77.766,20.582 77.512,23.883 75.625,26.281C74.91,27.168 74.008,27.883 72.985,28.375L70.031,25.703C66.336,22.371 60.641,22.66 57.297,26.344L54.172,29.734C44.333,26.645 33.637,28.004 24.883,33.449C16.13,38.898 10.188,47.894 8.613,58.086C7.039,68.277 9.992,78.648 16.695,86.484C23.399,94.316 33.187,98.839 43.5,98.859L45.36,98.859C56.954,98.297 67.532,92.078 73.669,82.226C79.806,72.375 80.716,60.136 76.11,49.484L79.235,46.109C80.845,44.336 81.677,41.992 81.552,39.601C81.423,37.211 80.349,34.969 78.563,33.375L76.563,31.672C77.591,30.988 78.513,30.156 79.298,29.203L79.297,29.203ZM66.406,84.062C59.449,91.769 49.066,95.437 38.808,93.808C28.554,92.175 19.82,85.472 15.593,75.984C11.37,66.5 12.226,55.523 17.874,46.808C23.523,38.093 33.194,32.828 43.577,32.812C47.038,32.816 50.476,33.398 53.749,34.531L71.405,50.469C73.987,55.934 74.89,62.043 74.003,68.024C73.112,74.004 70.468,79.586 66.405,84.063L66.406,84.062ZM76.797,39.843C76.863,40.991 76.465,42.12 75.688,42.968L73.172,45.749L58.25,32.296L60.766,29.499C61.547,28.663 62.625,28.171 63.766,28.124C64.918,28.062 66.043,28.464 66.891,29.249L75.359,36.89C76.211,37.644 76.727,38.706 76.797,39.843L76.797,39.843Z" style="fill:rgb(43,79,93);fill-rule:nonzero;"/>
        </g>
        <g>
            <g transform="matrix(1,0,0,1,-172,-159)">
                <path d="M91.031,6.906C90.551,6.465 89.918,6.227 89.265,6.25C88.613,6.227 87.98,6.465 87.5,6.906L85.047,9.375C84.601,9.848 84.363,10.477 84.375,11.125C84.375,11.785 84.64,12.422 85.109,12.887C85.578,13.355 86.215,13.613 86.875,13.609C87.535,13.617 88.172,13.355 88.64,12.891L91.094,10.438C91.566,9.973 91.832,9.336 91.832,8.672C91.832,8.008 91.566,7.371 91.094,6.906L91.031,6.906Z" style="fill:rgb(234,123,91);fill-rule:nonzero;"/>
            </g>
            <g transform="matrix(1,0,0,1,-172,-159)">
                <path d="M78.609,10.219C79.273,10.219 79.91,9.957 80.378,9.489C80.847,9.02 81.109,8.383 81.109,7.719L81.109,3.61C81.007,2.309 79.921,1.309 78.617,1.309C77.312,1.309 76.226,2.309 76.125,3.61L76.125,7.719C76.125,9.094 77.234,10.211 78.609,10.219L78.609,10.219Z" style="fill:rgb(234,123,91);fill-rule:nonzero;"/>
            </g>
            <g transform="matrix(1,0,0,1,-172,-159)">
                <path d="M68.641,12.891C69.114,13.352 69.747,13.61 70.407,13.61C71.067,13.618 71.704,13.356 72.172,12.891C73.137,11.911 73.137,10.34 72.172,9.36L69.735,6.907C68.746,5.965 67.192,5.965 66.204,6.907C65.731,7.372 65.465,8.008 65.465,8.672C65.465,9.336 65.731,9.973 66.204,10.438L68.641,12.891Z" style="fill:rgb(234,123,91);fill-rule:nonzero;"/>
            </g>
        </g>
    </g>
    <g transform="matrix(0.764242,0.258189,-0.258189,0.764242,58.4658,31.1464)">
        <path d="M1.51,46.805C-5.453,41.641 -1.819,30.539 6.892,30.539L30.81,30.539C32.366,30.539 33.745,29.537 34.223,28.059L41.619,5.307C44.329,-3.011 56.083,-3.009 58.787,5.309L66.179,28.059C66.657,29.538 68.041,30.539 69.595,30.539L93.517,30.539C102.261,30.539 105.889,41.724 98.821,46.864L79.47,60.925C78.21,61.839 77.683,63.458 78.165,64.936L85.557,87.693C88.256,96.007 78.741,102.918 71.668,97.784L52.313,83.723C51.055,82.807 49.353,82.807 48.095,83.723L28.74,97.784C21.667,102.919 12.153,96.007 14.852,87.694L22.246,64.939C22.727,63.46 22.199,61.838 20.94,60.924L1.588,46.865L1.51,46.805ZM4.819,42.5L24.131,56.53C27.294,58.827 28.618,62.9 27.411,66.617L20.017,89.37C18.942,92.682 22.732,95.435 25.549,93.39C25.549,93.39 44.901,79.331 44.899,79.332C48.063,77.029 52.345,77.029 55.507,79.331C55.507,79.331 74.859,93.39 74.858,93.389C77.676,95.435 81.467,92.682 80.392,89.371C80.392,89.371 73.001,66.617 73.002,66.62C71.789,62.902 73.113,58.826 76.28,56.53C76.28,56.53 95.628,42.471 95.627,42.472C98.442,40.425 97,35.969 93.517,35.969L69.595,35.969C65.689,35.969 62.213,33.447 61.013,29.734C61.013,29.734 53.622,6.988 53.623,6.988C52.545,3.674 47.862,3.675 46.783,6.988C46.783,6.988 39.388,29.734 39.39,29.73C38.188,33.447 34.723,35.969 30.81,35.969C30.81,35.969 6.892,35.969 6.892,35.969C3.41,35.969 1.967,40.425 4.782,42.472L4.819,42.5Z" style="fill:rgb(236,203,117);stroke:white;stroke-width:1.24px;"/>
    </g>
</svg>
